<?xml version="1.0" encoding="UTF-8" standalone="no"?>
<!-- Created with Inkscape (http://www.inkscape.org/) -->

<svg
   width="166.53725mm"
   height="94.581734mm"
   viewBox="0 0 166.53725 94.581734"
   version="1.1"
   id="svg5"
   xmlns="http://www.w3.org/2000/svg"
   xmlns:svg="http://www.w3.org/2000/svg">
  <defs
     id="defs2">
    <linearGradient
       id="linearGradient33073">
      <stop
         style="stop-color:#000000;stop-opacity:1;"
         offset="0"
         id="stop33071" />
    </linearGradient>
    <rect
       x="10.928564"
       y="396.55075"
       width="783.73419"
       height="330.97937"
       id="rect7580" />
    <rect
       x="10.928564"
       y="396.55075"
       width="783.73419"
       height="330.97937"
       id="rect7580-5" />
    <clipPath
       clipPathUnits="userSpaceOnUse"
       id="clipPath35520">
      <path
         id="path35522"
         style="fill:#ff0000;fill-opacity:1;fill-rule:nonzero;stroke:none;stroke-width:0.306017"
         d="m 205.52437,-133.77808 8.09327,3.13217 7.94296,-9.49818 -7.36294,-2.84953 c -0.003,0.005 -0.005,0.01 -0.008,0.0149 -0.0343,0.0656 -0.005,0.005 -0.0393,0.0704 -0.0248,0.0475 0.006,-0.003 -0.0281,0.0596 -4e-5,-9.3e-4 -9e-4,-0.002 -6.7e-4,-0.003 -0.001,-2.1e-4 -0.003,-0.002 -0.003,-4e-4 -0.003,0.007 -0.002,0.0129 -0.003,0.0195 -0.004,0.0307 0.004,0.0529 0.012,0.0751 0.0102,0.0298 0.0191,0.0618 0.0336,0.0879 0.0221,0.0402 0.0517,0.0738 0.0623,0.12398 0.007,0.0166 0.0123,0.0346 0.0204,0.0498 0.0365,0.075 0.006,-0.0203 0.0444,0.0903 0.003,0.008 -0.003,0.0222 8e-4,0.0289 0.006,0.0117 0.0168,0.0192 0.0248,0.0293 0.007,0.0212 0.0175,0.0399 0.0216,0.0636 0.007,0.0376 -0.011,0.10995 -0.0235,0.15496 -0.003,0.0123 -0.0112,0.0265 -0.0169,0.0398 -0.0239,0.0579 -0.0176,0.042 -0.0356,0.0914 -0.007,0.0176 -0.0128,0.0351 -0.0199,0.0529 -1.5e-4,2.9e-4 0.004,-0.0641 -0.001,-0.0227 -0.005,0.0385 -2e-5,0.0724 -0.0232,0.12032 -0.005,0.0144 -0.007,0.0219 -0.009,0.0269 0.0937,-0.0613 0.18668,-0.0534 0.17886,0.0879 -0.004,0.0631 -0.006,0.0765 -0.006,0.13242 -8.2e-4,-0.003 -0.003,-0.005 -0.004,-0.006 0.001,0.005 0.003,0.01 0.004,0.0149 -4.6e-4,-0.003 7e-5,-0.005 -1.3e-4,-0.008 6.9e-4,0.002 0.003,0.005 0.002,0.007 -5.8e-4,0.003 -0.001,0.007 -0.002,0.008 l -1.7e-4,8.5e-4 c 0.004,0.0164 0.009,0.0325 0.0133,0.0488 -0.003,0.0163 -0.008,0.0333 -0.009,0.0482 0.003,-0.0117 0.006,-0.0237 0.009,-0.0349 l 5.8e-4,-6.9e-4 c 0.008,0.026 0.0113,0.0537 0.0153,0.0826 0.005,0.0205 0.0109,0.04 0.0157,0.0605 0.0127,0.0339 0.009,0.0791 -0.003,0.12906 -0.002,0.0108 0.005,-0.0215 0.008,-0.0325 -7e-5,-0.002 -2.7e-4,-0.006 5.7e-4,-0.005 0.0223,0.0245 0.0301,0.0643 0.0375,0.10101 0.003,0.0443 -0.006,0.0975 0.006,0.13526 0.0115,0.0338 0.0223,0.0679 0.0248,0.10858 0.003,0.0487 -0.003,0.0172 6.3e-4,0.0341 0.002,0.0163 8.1e-4,0.0348 0.005,0.0492 7.3e-4,0.003 0.006,6.5e-4 0.006,0.004 0.005,0.0118 0.009,0.0236 0.0141,0.0358 0.009,0.0305 0.0105,0.0262 0.0123,0.069 3e-4,0.006 -5.6e-4,0.0122 -0.001,0.0183 0.001,3.7e-4 0.002,7.3e-4 0.003,0.001 -4e-4,-0.002 -0.002,-0.006 -7.2e-4,-0.005 5.7e-4,0.002 9.1e-4,0.004 0.002,0.005 0.0108,0.004 0.0214,0.008 0.0315,0.0131 l -9.9e-4,5.3e-4 c 0.0989,0.0463 0.0751,0.15684 10e-4,0.2449 7.6e-4,0.008 0.001,0.0154 0.002,0.023 0.001,0.0166 0.004,0.0323 0.004,0.0497 8.6e-4,0.03 8.1e-4,0.0608 6e-5,0.0919 -4.7e-4,0.0205 -0.004,0.0432 -0.003,0.0631 0.002,0.0585 0.008,0.0543 0.0149,0.10206 0.004,0.0309 0.008,0.0625 0.0122,0.0939 0.007,0.0755 0.007,0.0665 0.0119,0.14815 0.001,0.0156 8e-4,0.0329 0.003,0.0476 0.006,0.0399 0.008,0.0168 0.0186,0.0393 0.006,0.0138 0.0113,0.0288 0.017,0.0431 0.003,0.009 0.008,0.0179 0.0103,0.0289 0.0303,0.17946 -0.005,-0.003 0.011,0.13712 0.009,0.0761 0.0125,0.0563 0.0245,0.12096 0.005,0.0253 0.008,0.0517 0.0119,0.0777 0.002,0.0163 0.004,0.0318 0.005,0.049 0.002,0.10102 -0.003,0.0612 -0.009,0.14734 -0.004,0.0586 -0.001,0.11243 -0.007,0.17204 -0.005,0.0534 -0.0134,0.1091 -0.02,0.16346 -0.0172,0.10849 -0.0206,0.11489 -0.0284,0.21281 -0.001,0.0133 -0.003,0.0278 -7.4e-4,0.0389 0.008,0.0497 0.011,0.0136 0.0217,0.0521 0.009,0.0319 0.0152,0.0659 0.0228,0.0989 0.004,0.0248 0.0126,0.0462 0.0121,0.0742 -0.002,0.13593 -0.0146,0.1557 -0.0377,0.28859 -8.7e-4,0.005 -0.004,0.0248 -0.006,0.0369 0.0135,0.0122 0.0276,0.0237 0.0407,0.0363 l 0.002,-0.002 c 0.0788,0.0753 0.0258,0.20277 -0.0636,0.28659 0.004,0.0194 0.01,0.0375 0.0156,0.0568 0.0183,0.059 0.0374,0.11747 0.0569,0.17541 0.005,0.0134 0.009,0.0263 0.0137,0.0401 0.0112,0.0331 0.0249,0.0642 0.0335,0.0994 0.0156,0.065 0.0233,0.13629 0.0364,0.20313 0.004,0.0165 0.01,0.0313 0.0109,0.0497 0.0107,0.17271 -0.0211,0.37165 -0.0467,0.5669 -0.005,0.0468 -0.003,0.0498 -0.0419,0.13002 -0.008,0.0161 -0.0189,0.0325 -0.0299,0.0491 3.3e-4,5.8e-4 -9e-5,0.003 9e-5,0.004 0.003,-0.004 0.006,-0.008 0.008,-0.0121 0.001,-9.8e-4 0.002,-0.005 0.002,-0.005 0.002,0.003 0.003,0.006 0.004,0.009 0.003,0.0323 0.006,0.0652 0.008,0.0984 0.003,0.0154 0.005,0.0223 0.0144,0.0475 0.005,0.0138 0.019,0.0462 0.0177,0.0613 -0.002,0.0239 -0.0105,0.0516 -0.0171,0.0781 l -1.7e-4,8.4e-4 c 0.002,0.0169 0.004,0.0261 0.004,0.0319 -0.008,0.005 -0.008,0.005 -0.0154,0.0101 -7.9e-4,0.003 -0.006,0.0168 -0.0122,0.0336 0.0124,-0.007 0.0251,-0.0139 0.0372,-0.0204 0.009,-0.005 -0.002,0.0152 -10e-4,0.021 9.9e-4,0.009 0.009,0.0123 0.0111,0.0204 0.0115,0.0292 0.0155,0.0533 0.0214,0.0823 0.062,0.0506 0.0485,0.0377 0.10286,0.0755 0.0984,0.0669 0.0408,0.20447 -0.0597,0.29077 -0.003,0.0105 -0.007,0.0212 -0.008,0.0309 0.001,-0.002 0.006,-0.0102 0.008,-0.013 9.9e-4,-9.8e-4 5.4e-4,6.7e-4 6.6e-4,0.001 0.003,0.0163 0.004,0.034 0.006,0.0505 0.005,0.0663 -0.0208,0.15254 -0.0402,0.23322 -0.001,0.005 -0.003,0.008 -0.004,0.012 l -0.005,-0.005 -8.2e-4,-3.1e-4 c 0.002,0.004 0.003,0.006 0.004,0.009 -1.2e-4,4.1e-4 -5.4e-4,0.002 -5e-4,0.003 l -1.7e-4,8.5e-4 c 4.5e-4,0.001 6.6e-4,0.001 9e-4,0.002 -0.006,0.0157 -0.0109,0.0182 7.6e-4,0.0137 -0.002,-0.003 -6.8e-4,-0.008 -2.9e-4,-0.0117 0.0238,0.0473 0.0254,0.0446 0.0207,0.13375 -0.0123,0.0409 -0.0137,0.0757 -0.0176,0.11177 0.0108,0.0189 0.0308,0.0595 0.0109,0.0809 -0.0943,0.10059 -0.19979,0.19603 -0.30631,0.2756 -0.0234,0.0175 -0.0324,-0.005 -0.0414,-0.0151 -0.0118,-0.0136 -0.0131,-0.0376 -0.0197,-0.0558 -5.9e-4,-0.003 -0.001,-0.002 -8.9e-4,-0.004 3.7e-4,0.007 7.5e-4,0.018 -0.002,0.0207 -0.006,0.008 -0.0102,-0.003 -0.0152,-0.004 -0.12513,-0.0346 -0.0838,-0.16689 0.0132,-0.26242 -0.002,-0.008 -0.003,-0.0153 -0.007,-0.0312 9.8e-4,-0.0193 0.002,-0.0378 0.005,-0.0579 9.7e-4,-0.011 0.006,-0.024 0.008,-0.0352 0.0145,-0.0602 0.011,-0.0463 0.0238,-0.0969 0.003,-0.0119 0.007,-0.0246 0.009,-0.0358 0.001,-0.007 4e-5,-0.0136 1.3e-4,-0.0205 -5.4e-4,-0.0339 0.001,-0.014 -0.009,-0.0542 -0.007,-0.11886 -0.008,-0.0395 0.006,-0.0815 0.002,-0.005 0.004,-0.0118 0.005,-0.0168 0.001,-0.0101 -0.001,-0.0178 -0.001,-0.0263 -0.002,-0.0272 -0.002,-0.0569 -0.008,-0.0806 -0.0111,-0.0408 -0.0282,-0.0772 -0.0327,-0.12323 -0.0406,-0.0346 -0.0771,-0.0742 -0.0865,-0.13691 -0.003,-0.0181 -1.5e-4,-0.04 -3.1e-4,-0.0599 0.0189,-0.0573 0.0197,-0.0652 0.026,-0.08 -0.004,-0.0421 -0.006,-0.086 -0.008,-0.12977 -0.002,-0.009 -0.003,-0.0106 -0.007,-0.0277 -0.0112,-0.0616 -0.0322,-0.11556 -0.0417,-0.17842 -0.008,-0.0559 -0.009,-0.1177 -0.0142,-0.17581 -0.002,-0.0497 -0.0239,-0.0838 -0.0496,-0.11374 -0.006,-0.006 -0.0124,-0.0103 -0.0169,-0.0172 -0.009,-0.0122 -0.0162,-0.0255 -0.0239,-0.0387 -0.0224,-0.0473 -0.0294,-0.10759 -0.0267,-0.17351 4.6e-4,-0.0121 3.4e-4,-0.0235 0.004,-0.0377 0.006,-0.0284 0.0164,-0.0584 0.0246,-0.0877 0.0325,-0.0717 0.0335,-0.12582 0.0435,-0.18647 0.0135,-0.0476 0.004,-0.0779 -0.005,-0.11071 -0.0103,-0.0357 -0.0191,-0.0725 -0.0276,-0.10967 -0.0192,-0.0512 0.0354,0.0781 0.0448,0.0307 0.0155,-0.0779 -0.0135,-0.13012 0.0101,-0.21187 0.002,-0.006 0.007,-0.0137 0.0133,-0.0216 0.002,-0.002 0.004,-0.004 0.005,-0.006 -0.007,-0.0416 -0.011,-0.0849 -0.01,-0.13303 0.002,-0.0342 0.002,-0.0674 0.005,-0.10239 0.001,-0.0134 0.005,-0.0419 0.009,-0.067 -0.059,-0.0493 -0.12086,-0.0957 -0.18682,-0.1374 -0.0176,-0.0119 -0.0376,-0.0209 -0.0563,-0.0316 -0.004,-0.002 -0.0112,-6.8e-4 -0.0144,-0.004 -0.0138,-0.0147 -0.0243,-0.0321 -0.0361,-0.0488 -0.0162,-0.0197 -4.5e-4,-0.0583 0.008,-0.0922 8e-5,0.002 -1.1e-4,0.004 -7e-5,0.005 l 5.7e-4,-6.9e-4 c 6.3e-4,-0.005 8e-4,-0.01 0.001,-0.0147 -5.8e-4,0.003 -9.5e-4,0.006 -0.002,0.01 -3.4e-4,-0.003 -2.2e-4,-0.008 -2.2e-4,-0.01 10e-4,-0.004 0.003,-0.0128 0.004,-0.0154 0.002,-0.0225 0.004,-0.0448 0.006,-0.0673 0.006,-0.0162 0.0142,-0.0325 0.0185,-0.0481 -8e-5,-0.002 -0.005,0.003 -0.005,6.7e-4 -0.001,-0.005 -4.1e-4,-0.012 6e-4,-0.0185 0.004,-0.0207 0.008,-0.0423 0.0139,-0.0642 0.0188,-0.0704 0.0189,-0.0647 0.0169,-0.0532 10e-4,-0.004 10e-4,-0.004 0.004,-0.0172 0.002,-0.009 0.008,-0.0206 0.006,-0.028 -6.9e-4,-0.002 -0.006,0.009 -0.0104,0.0111 -0.004,0.002 -0.005,-0.002 -0.007,-0.003 -0.0214,-0.0267 -0.034,-0.0532 -0.047,-0.0877 -0.02,-0.0643 0.0141,-0.16187 0.0288,-0.24746 0.003,-0.0155 0.003,-0.0298 0.004,-0.0447 -0.004,-0.0419 0.0184,-0.0981 0.0348,-0.15062 0.004,-0.0127 0.01,-0.0413 0.0127,-0.0539 0.006,-0.0218 0.0119,-0.0433 0.018,-0.0653 0.0337,-0.10676 0.0443,-0.20172 0.0428,-0.28838 -1.4e-4,-0.0673 -0.0152,-0.12439 -0.0204,-0.18803 -0.002,-0.0253 -0.002,-0.0519 -0.003,-0.0779 0.006,-0.0688 -0.0114,-0.12147 -0.0336,-0.16906 -0.004,-0.008 -0.009,-0.0145 -0.0124,-0.0226 -0.009,-0.0243 -0.0157,-0.05 -0.0236,-0.0751 -0.0254,-0.10499 -0.045,-0.21474 -0.0719,-0.31853 -0.0138,-0.0238 3.2e-4,-0.0675 3.7e-4,-0.10063 -3e-5,-0.004 -0.003,-0.006 -0.004,-0.008 -9.8e-4,-0.004 -0.004,-0.007 -0.004,-0.0121 5.5e-4,-0.029 0.004,-0.0596 0.006,-0.0895 5.7e-4,-0.008 0.002,-0.0163 0.003,-0.0247 -0.0533,-0.0119 -0.10366,-0.0276 -0.14555,-0.0536 -0.003,-0.004 -0.006,-0.009 -0.009,-0.0135 3.7e-4,0.002 10e-4,0.003 0.002,0.004 l -5.7e-4,6.9e-4 c -0.006,-0.004 -0.0347,-0.0446 -0.0125,-0.02 0.004,0.004 0.007,0.009 0.0106,0.0139 -0.01,-0.0262 -0.0241,-0.0487 -0.0295,-0.0783 -0.004,-0.0221 0.0204,-0.0649 0.006,-0.0394 0.002,-0.0466 0.006,-0.0778 0.0334,-0.13954 0.001,-0.003 0.003,-0.006 0.004,-0.009 0,0 1.6e-4,-8.4e-4 1.6e-4,-8.4e-4 6e-5,-4e-4 6.8e-4,-0.001 7.5e-4,-0.002 6.6e-4,-0.001 8.2e-4,-0.002 0.001,-0.003 -9.8e-4,5.3e-4 -0.001,0.001 -0.002,0.003 0.005,-0.036 0.0112,-0.0723 0.0131,-0.10638 2e-4,-0.009 9.3e-4,-0.0178 8.8e-4,-0.0264 0.001,-0.0207 -0.007,-0.0337 -0.009,-0.0524 -0.003,-0.054 0.002,-0.11341 0.004,-0.17131 0.002,-0.0602 8.5e-4,-0.0475 0.007,-0.12124 0.001,-0.0157 0.006,-0.0338 0.005,-0.048 -0.001,-0.0366 -0.007,-0.0105 -0.0128,-0.0335 -0.004,-0.0156 -0.005,-0.0329 -0.008,-0.0495 -0.006,-0.0325 0.005,-0.0754 0.007,-0.11248 9.5e-4,-0.0258 -0.006,-0.047 -0.003,-0.0742 0.003,-0.0301 0.011,-0.063 0.0164,-0.0944 0.007,-0.0211 0.0131,-0.0418 0.0197,-0.0628 9e-5,-0.003 0.002,-0.0109 0.002,-0.0126 l -9.8e-4,5.4e-4 c 0.003,-0.0177 0.006,-0.0351 0.011,-0.0537 0.007,-0.0248 0.02,-0.0525 0.0297,-0.0786 0.0185,-0.0506 0.0124,-0.036 0.0402,-0.10391 0.006,-0.0156 0.0164,-0.0325 0.0199,-0.0467 0.002,-0.006 -0.004,-0.007 -0.005,-0.0108 -10e-4,-0.004 9e-4,-0.0113 -0.002,-0.0141 -0.002,-0.002 -0.006,-0.002 -0.009,-0.003 -0.0243,-0.008 -0.0125,-0.003 -0.0299,-0.0562 -0.004,-0.0116 -0.003,-0.0265 -0.007,-0.0383 -0.002,-0.005 -0.0253,-0.0376 -0.0275,-0.0419 -0.0103,-0.0213 -0.0194,-0.0436 -0.0289,-0.0656 -0.006,-0.0159 -0.01,-0.0328 -0.0169,-0.0476 -0.0423,-0.0951 -0.004,-5.2e-4 -0.0349,-0.0572 -0.0194,-0.0354 -0.0331,-0.0751 -0.0468,-0.1153 -0.0156,-0.0373 -0.0212,-0.0807 -0.0196,-0.13064 2.8e-4,-0.0114 5.6e-4,-0.0234 0.003,-0.0362 0.006,-0.0248 0.015,-0.0513 0.0224,-0.0769 0.0362,-0.0893 0.0917,-0.18313 0.13761,-0.27489 -0.0122,-0.0127 0.0121,-0.0542 0.0172,-0.0808 0.007,-0.007 0.013,-0.0152 0.0196,-0.0228 l -0.48555,-0.18791 z m 8.41135,-9.2536 c -0.001,0.005 -0.002,0.01 -0.004,0.0146 0.002,-0.005 0.005,-0.01 0.007,-0.015 -6.3e-4,-2.3e-4 -0.003,-8.8e-4 -0.004,4.5e-4 z m -0.004,0.0575 c 0.0111,0.0283 0.042,0.0445 0.0886,0.0297 -0.0256,0.004 -0.0498,-0.005 -0.0886,-0.0297 z m -0.0536,1.24102 c -8.7e-4,0.005 -0.001,0.009 -0.002,0.0142 l -5.7e-4,6.9e-4 c -2.8e-4,-0.002 5.6e-4,-0.0106 0.003,-0.0149 z m 0.44856,4.41277 c -0.0363,0.0637 -0.0473,0.10091 0.0195,0.0566 -0.007,-0.0188 -0.013,-0.0377 -0.0195,-0.0566 z m 0.36066,1.29791 c -6.2e-4,0.002 -3e-5,0.004 0.002,0.008 4.9e-4,-2.7e-4 0.001,-8.8e-4 0.002,-9.1e-4 0.001,-0.004 0.003,-0.009 0.004,-0.0128 -0.003,0.002 -0.005,0.003 -0.007,0.004 -7.8e-4,6.1e-4 -7.7e-4,0.001 -0.002,0.002 z" />
    </clipPath>
    <rect
       x="10.928564"
       y="396.55075"
       width="783.73419"
       height="330.97937"
       id="rect7580-3" />
  </defs>
  <g
     id="layer3"
     transform="translate(-31.731665,-71.370205)">
    <ellipse
       style="fill:#ffffff;fill-opacity:1;stroke:#ffffff;stroke-width:1.09805;stroke-miterlimit:4;stroke-dasharray:none;stroke-opacity:1"
       id="path30230"
       cx="61.922489"
       cy="139.90976"
       rx="27.418171"
       ry="24.05917" />
    <ellipse
       style="fill:#ffffff;fill-opacity:1;stroke:#ffffff;stroke-width:1.06476;stroke-miterlimit:4;stroke-dasharray:none;stroke-opacity:1"
       id="path30126"
       cx="73.752022"
       cy="123.55289"
       rx="23.345596"
       ry="23.053509" />
    <ellipse
       style="fill:#ffffff;fill-opacity:1;stroke:#ffffff;stroke-width:1.42819;stroke-miterlimit:4;stroke-dasharray:none;stroke-opacity:1"
       id="path30022"
       cx="173.7919"
       cy="141.15114"
       rx="21.703449"
       ry="21.630428" />
    <rect
       style="fill:#ffffff;fill-opacity:1;stroke:#ffffff;stroke-width:1.022;stroke-miterlimit:4;stroke-dasharray:none;stroke-opacity:1"
       id="rect30334"
       width="97.557137"
       height="53.890091"
       x="68.932579"
       y="109.53271" />
    <ellipse
       style="fill:#ffffff;fill-opacity:1;stroke:#ffffff;stroke-width:2.16841;stroke-miterlimit:4;stroke-dasharray:none;stroke-opacity:1"
       id="path29826"
       cx="115.00931"
       cy="118.07629"
       rx="34.988228"
       ry="43.860695" />
    <ellipse
       style="fill:#ffffff;fill-opacity:1;stroke:#ffffff;stroke-width:1.22149;stroke-miterlimit:4;stroke-dasharray:none;stroke-opacity:1"
       id="path30020"
       cx="154.58716"
       cy="118.5144"
       rx="18.812901"
       ry="19.835207" />
  </g>
  <g
     id="layer7"
     transform="translate(-31.731665,-71.370205)">
    <path
       style="fill:#00ffff;stroke:#000000;stroke-width:0.1;stroke-opacity:1;stroke-miterlimit:4;stroke-dasharray:none"
       d="m 129.27931,93.283036 c -4.1678,6.807844 -7.6807,12.387714 -7.80645,12.399684 -0.12573,0.012 -0.56775,-0.17784 -0.98228,-0.4218 l -0.75365,-0.44356 7.54832,-11.987785 c 4.15158,-6.593276 7.70628,-12.205087 7.89934,-12.470682 0.30725,-0.422712 0.43342,-0.418759 1.0118,0.03167 0.66019,0.514122 0.65413,0.525454 -6.91708,12.89248 z m -0.14382,-1.008194 c -0.62507,0.87524 -1.12022,1.721937 -1.10038,1.881534 0.0199,0.159587 0.54575,-0.482978 1.16868,-1.427918 1.45803,-2.211774 1.41088,-2.5249 -0.0683,-0.453616 z m -2.44122,3.829298 c -0.44668,0.653102 -1.5116,2.40107 -2.36648,3.884396 -1.73252,3.006064 -0.81576,1.791634 1.64334,-2.176981 1.6753,-2.70362 2.1157,-3.743475 0.72314,-1.707415 z m -6.05917,12.22643 c -0.40573,1.19901 -0.70851,2.41467 -0.67283,2.70146 0.13838,1.11259 -2.31379,0.54419 -3.95873,-0.91761 l -1.11651,-0.99223 1.46514,-1.053 c 0.80584,-0.57914 1.88734,-1.48696 2.40335,-2.01738 l 0.93817,-0.96436 0.83955,0.53157 0.83957,0.53153 z m -1.77914,1.2923 c -0.31943,0.22575 -0.90486,0.38944 -1.30108,0.36341 -0.97362,-0.0635 -0.86907,0.24828 0.24558,0.73252 1.25582,0.54553 1.52138,0.45938 1.54697,-0.50186 0.0117,-0.45403 0.0371,-0.86575 0.0558,-0.91496 0.0185,-0.0492 -0.22783,0.0949 -0.54715,0.32088 z m 2.93441,8.29304 c -0.17199,0.0215 -0.20963,0.29733 -0.0838,0.61319 0.18132,0.45449 0.1173,0.54663 -0.30677,0.44166 -0.53621,-0.13272 -0.49108,0.13198 0.26952,1.58132 0.12104,0.23059 0.0127,0.31126 -0.31148,0.23113 -0.44163,-0.10936 -0.44411,0.30517 -0.022,3.69862 0.43209,3.47405 0.54262,3.88842 1.21485,4.55413 l 0.7395,0.73234 -0.66375,-0.1232 c -0.8464,-0.15717 -0.81434,0.0462 0.11732,0.74462 l 0.74237,0.55651 -0.758,-0.0818 c -0.74851,-0.0807 -0.7554,-0.0564 -0.54571,1.89885 0.39903,3.72097 0.63118,7.01459 0.45874,6.50821 -0.28746,-0.8442 -0.68361,-0.17061 -0.54676,0.92971 0.0706,0.56712 -0.004,0.97041 -0.1662,0.89617 -0.16194,-0.0742 -0.34699,0.14852 -0.41135,0.49478 -0.0867,0.46728 -0.27845,0.59972 -0.74307,0.51346 -0.38162,-0.0709 -0.54115,-0.01 -0.40847,0.15441 0.12542,0.15601 -0.33225,0.42437 -1.08042,0.63351 -0.86942,0.24307 -1.28006,0.5077 -1.24353,0.80141 0.0389,0.3123 -0.0882,0.38046 -0.44108,0.2368 -0.27256,-0.11091 -1.07145,-0.0396 -1.7753,0.15851 -0.97413,0.27417 -1.29146,0.26581 -1.32888,-0.035 -0.0615,-0.49532 -0.41757,-0.46234 -0.86139,0.0798 -0.27759,0.33909 -0.3205,0.29697 -0.23126,-0.22705 0.0602,-0.35389 -0.057,-0.94512 -0.26041,-1.31388 -0.23545,-0.42668 -0.3551,-0.49528 -0.32904,-0.18866 0.0225,0.26503 -0.13143,0.66533 -0.34219,0.88958 -0.32612,0.34705 -0.37734,0.25019 -0.34392,-0.65013 0.029,-0.78062 -0.13406,-1.22961 -0.62205,-1.71286 l -0.66135,-0.65498 -0.21644,0.89536 c -0.25188,1.04197 -0.84425,1.28875 -0.71252,0.29682 l 0.0891,-0.67131 -0.74569,0.75298 c -0.41014,0.41413 -0.88988,0.7709 -1.06613,0.79283 -0.17623,0.0219 -0.0514,-0.20318 0.2773,-0.50021 0.95909,-0.86656 0.62972,-1.09548 -0.48759,-0.3389 -1.09776,0.74335 -2.35442,1.10957 -1.45468,0.4239 0.26303,-0.20042 0.45358,-0.56271 0.42342,-0.80507 -0.0432,-0.34733 -0.27683,-0.3697 -1.10348,-0.10565 -0.75102,0.2399 -1.00169,0.23247 -0.8831,-0.0263 0.11342,-0.24738 -0.21113,-0.31432 -1.03029,-0.21245 -0.86657,0.10783 -1.21098,0.0271 -1.2508,-0.29317 -0.0303,-0.24305 -0.19305,-0.42483 -0.36242,-0.40366 -0.16911,0.021 -0.89142,-0.38119 -1.60519,-0.89381 -1.008778,-0.72452 -1.235498,-1.02939 -1.01815,-1.36922 0.153776,-0.24045 0.194005,-0.42654 0.08943,-0.41354 -0.104594,0.013 -0.01415,-0.33479 0.200801,-0.77291 0.362209,-0.73787 0.355459,-0.79212 -0.09159,-0.73653 -0.440255,0.0548 -0.450011,-0.007 -0.111191,-0.69662 0.34859,-0.71016 0.33172,-0.76192 -0.274252,-0.84242 -0.490115,-0.0654 -0.617409,-0.23801 -0.52832,-0.7178 0.09474,-0.51008 0.02384,-0.58209 -0.367835,-0.37317 -0.329917,0.17605 -0.430758,0.14009 -0.315065,-0.11225 0.218593,-0.47681 0.246011,-0.48479 -1.48548,0.43203 -0.881866,0.46691 -1.489426,0.6537 -1.512734,0.46576 -0.02154,-0.17297 -0.398575,-0.22797 -0.837913,-0.12216 -0.553555,0.13324 -0.78782,0.0658 -0.763003,-0.21958 0.02252,-0.25959 -0.1224,-0.32743 -0.392231,-0.18347 -0.638028,0.34043 -1.2454,-0.73078 -1.262612,-2.22684 -0.0096,-0.83855 -0.11279,-1.21645 -0.292568,-1.07188 -0.177564,0.1428 -0.242404,-0.064 -0.179828,-0.57344 0.08189,-0.66666 0.01595,-0.75941 -0.400976,-0.56804 -0.347931,0.15968 -0.300667,0.003 0.156489,-0.51602 l 0.655311,-0.74474 -0.711524,0.29276 c -0.691365,0.28444 -0.689161,0.26791 0.07683,-0.58496 0.440639,-0.49057 0.596258,-0.83074 0.352842,-0.77119 -0.239535,0.0585 -0.769162,0.13 -1.176945,0.1587 -0.59242,0.0417 -0.659761,-0.0159 -0.335041,-0.28837 0.338699,-0.28384 0.310605,-0.3294 -0.168685,-0.2736 -0.43959,0.0512 -0.503842,-0.0245 -0.272764,-0.32124 0.231079,-0.29674 0.138304,-0.44767 -0.393825,-0.64075 -0.389541,-0.14135 -0.685342,-0.47718 -0.671645,-0.76257 0.01343,-0.28051 -0.09941,-0.49459 -0.250845,-0.47574 -0.392081,0.0488 -0.875519,-2.06077 -0.583322,-2.5452 0.161857,-0.26831 0.140525,-0.39144 -0.06337,-0.36608 -0.57518,0.0715 -0.916101,-1.64612 -0.652564,-3.28784 0.251577,-1.56726 1.495301,-3.6297 1.967221,-3.26218 0.124007,0.0965 0.204462,0.007 0.178754,-0.20008 -0.03146,-0.25248 0.199605,-0.34539 0.704725,-0.28337 0.587857,0.0721 0.702398,7.1e-4 0.526181,-0.3299 -0.200292,-0.37539 -0.07932,-0.39018 1.092069,-0.13373 1.035825,0.22668 1.355919,0.20404 1.498042,-0.10597 0.134662,-0.29374 0.373911,-0.25329 0.938382,0.15858 0.416717,0.30405 1.371332,0.61604 2.121395,0.69329 1.840484,0.18965 1.952977,0.16126 1.413433,-0.35583 -0.407888,-0.39095 -0.399177,-0.43079 0.06965,-0.31863 1.780374,0.42582 7.477033,-0.37724 6.372043,-0.89827 -0.30915,-0.14578 -0.10302,-0.2556 0.66553,-0.3544 1.11672,-0.14362 3.07228,-1.07908 3.02642,-1.44785 -0.0134,-0.10817 -0.34803,-0.092 -0.74347,0.0357 -1.09485,0.35388 -0.89275,0.0821 0.65814,-0.88505 0.79819,-0.49778 1.23068,-0.92377 0.99946,-0.98447 -0.77348,-0.20299 0.75673,-0.29807 1.95059,-0.1212 0.82086,0.12165 1.23177,0.0738 1.33691,-0.1555 0.30213,-0.65908 2.63465,0.0195 3.50668,1.02072 0.99134,1.13775 2.72399,2.05562 3.66049,1.93914 0.38115,-0.0474 0.71769,0.0788 0.74788,0.28095 0.26279,1.75735 1.26471,4.75072 1.72211,5.14505 0.30629,0.26406 0.41618,0.4976 0.24423,0.51898 z m -2.11703,-2.8032 c -0.0565,0.21272 -0.0157,0.54416 0.0916,0.73654 0.10693,0.19238 0.1532,0.0184 0.10276,-0.38675 -0.0504,-0.40511 -0.13788,-0.56251 -0.19438,-0.3498 z m -0.62136,0.68023 -0.42821,-1.22282 0.27611,1.27335 c 0.15186,0.70035 0.45723,1.40283 0.67883,1.56094 0.3023,0.21607 0.34016,0.20349 0.15213,-0.0506 -0.13775,-0.18601 -0.44306,-0.88849 -0.67884,-1.56092 z m -0.69544,4.654 c -0.42756,0.0352 -0.47264,0.97362 -0.0762,1.58691 0.35256,0.54542 0.38774,0.54994 0.343,0.0439 -0.0474,-0.536 -0.019,-0.54212 0.57602,-0.12458 0.61344,0.43042 0.61358,0.41961 0.008,-0.54312 -0.34024,-0.54027 -0.72277,-0.97372 -0.85003,-0.96325 z m 2.35693,13.04249 c -0.14406,-0.066 -0.30711,-0.7947 -0.36229,-1.61928 -0.0838,-1.25208 -0.15893,-1.43008 -0.45562,-1.07985 -0.23189,0.27373 -0.24346,0.52616 -0.0334,0.7267 0.20593,0.19656 0.21754,0.39123 0.0324,0.5402 -0.15928,0.12812 -0.19799,0.34685 -0.0859,0.48611 0.11198,0.13923 0.0469,0.27265 -0.14447,0.29645 -0.25938,0.0323 -0.24061,0.14429 0.0736,0.43961 0.34884,0.3278 0.3282,0.40793 -0.11938,0.4636 -0.48674,0.0606 -0.48998,0.10714 -0.0321,0.46373 0.28799,0.22427 0.71344,0.28737 0.97971,0.14525 0.50491,-0.26947 0.57306,-0.66757 0.14761,-0.86261 z m -0.75798,1.55621 c -0.92586,-0.6496 -0.96335,-0.31943 -0.042,0.37016 0.41741,0.31243 0.74558,0.46078 0.72926,0.32965 -0.0163,-0.13114 -0.32556,-0.44604 -0.68722,-0.69981 z m -2.06005,-17.84197 c -0.30109,0.0374 -0.81727,1.90952 -0.72691,2.63618 0.0555,0.44556 -0.04,0.70641 -0.22684,0.62073 -0.17733,-0.0813 -0.26226,-0.27907 -0.18864,-0.43955 0.0735,-0.16043 -0.0622,-0.18714 -0.30168,-0.0594 -0.33886,0.18081 -0.46199,0.0185 -0.55535,-0.73213 -0.13627,-1.0955 -0.37894,-0.99396 -0.44465,0.18596 -0.0243,0.43457 0.0822,0.77441 0.23652,0.75522 0.1543,-0.0192 0.39851,0.22163 0.54271,0.53518 0.14386,0.31369 0.36532,0.48713 0.49136,0.38578 0.12603,-0.1014 0.31738,-0.0262 0.42522,0.16714 0.30774,0.55161 0.72657,-0.44926 0.6265,-1.49712 -0.0466,-0.48784 -0.004,-1.1663 0.0952,-1.50771 0.21162,-0.73015 0.22035,-1.07449 0.0266,-1.05041 z m 1.93274,19.09382 c -0.20476,-0.38659 -0.69665,-0.82365 -1.0931,-0.97122 l -0.72084,-0.26831 0.71007,0.62542 c 0.39055,0.34399 0.88971,0.87234 1.10926,1.17412 0.49486,0.68024 0.49196,0.37907 -0.006,-0.56001 z m -3.48987,-11.83128 c -0.39578,-0.57533 -0.62275,-0.71676 -0.68229,-0.42518 -0.0986,0.48274 2.37928,2.4226 2.98751,2.33886 0.2085,-0.0287 -0.0914,-0.27705 -0.66656,-0.55188 -0.57509,-0.27485 -1.3125,-0.88766 -1.63866,-1.3618 z m 1.8847,11.54452 c -0.13451,0.0167 0.17233,0.51708 0.68188,1.11187 0.50956,0.5948 0.9836,1.07434 1.05346,1.06565 0.0698,-0.008 -0.23699,-0.50903 -0.6819,-1.11187 -0.4449,-0.60283 -0.91896,-1.08239 -1.05344,-1.06565 z m -2.11578,-22.49881 c -0.29559,0.37957 -0.44844,0.67905 -0.33968,0.66552 0.29505,-0.0367 1.17926,-1.12034 1.01718,-1.24658 -0.077,-0.0599 -0.38189,0.20154 -0.6775,0.58106 z m -0.55963,-1.29232 c -0.47693,0.46511 -1.31473,1.03523 -1.86183,1.26693 -0.74862,0.31679 -0.82552,0.40693 -0.31112,0.36323 0.37597,-0.0319 0.61887,0.0831 0.5398,0.25557 -0.22339,0.48728 0.76459,-0.0919 1.74077,-1.02048 0.4782,-0.45488 0.8447,-1.02591 0.81447,-1.26897 -0.0417,-0.33444 -0.26588,-0.23623 -0.92207,0.40376 z m 0.0567,13.05762 c -0.2526,-0.5491 -0.84554,-0.75903 -0.78574,-0.27814 0.0545,0.43837 1.10935,1.42201 1.7941,1.67305 l 0.68921,0.25268 -0.71646,-0.53602 c -0.39401,-0.29482 -0.83553,-0.79502 -0.98111,-1.11157 z m 2.19065,15.83451 c -0.51288,-0.30836 -0.522,-0.29665 -0.0974,0.12507 0.44593,0.44286 0.70727,0.56884 0.67712,0.32637 -0.008,-0.0612 -0.26849,-0.26434 -0.5797,-0.45145 z m -1.21376,-4.38393 c -0.33727,-0.0442 -0.59707,0.0477 -0.57743,0.20547 0.0197,0.1578 -0.23994,0.23571 -0.57681,0.17316 -0.36505,-0.0677 -0.59581,0.0203 -0.57122,0.21814 0.0228,0.1825 0.18256,0.21823 0.35528,0.0793 0.20344,-0.16361 0.24983,-0.11226 0.13159,0.14541 -0.14492,0.31613 -0.0558,0.30839 0.43395,-0.0375 0.33901,-0.23954 0.55313,-0.29765 0.47587,-0.12901 -0.0773,0.16857 0.15102,0.51104 0.50731,0.76105 0.71255,0.49993 0.79612,0.31447 0.22352,-0.49589 -0.30898,-0.43729 -0.28387,-0.50403 0.14931,-0.39682 0.32402,0.0802 0.43408,0.0212 0.29129,-0.15647 -0.12623,-0.15695 -0.5054,-0.32201 -0.84264,-0.36678 z m -1.43918,-16.61769 c -0.15466,-0.0709 -0.31729,0.14347 -0.36153,0.47607 -0.0791,0.59507 0.18998,0.76332 0.52749,0.32992 0.23899,-0.30689 0.16773,-0.65301 -0.16596,-0.80599 z m -0.29259,6.03078 c -0.14759,-0.29315 -0.33226,-0.45098 -0.41032,-0.35074 -0.21423,0.27508 0.978,1.89359 1.35986,1.84611 0.20528,-0.0254 0.13854,-0.21778 -0.17426,-0.50187 -0.27881,-0.25327 -0.6277,-0.70034 -0.77532,-0.99348 z m -1.75322,-13.18563 c -0.43501,0.14076 -0.61372,0.29169 -0.3972,0.33531 0.39049,0.0788 1.2301,-0.25338 1.20245,-0.4756 -0.009,-0.0637 -0.37027,3.6e-4 -0.80526,0.14027 z m 3.90911,28.67302 c -0.0857,0.11011 -0.0645,0.3655 0.047,0.56757 0.12328,0.22334 0.18441,0.14484 0.15586,-0.20012 -0.0258,-0.31218 -0.1171,-0.47753 -0.20281,-0.36746 z m -1.01753,-3.36874 c -0.12974,-0.24321 -0.33704,-0.36084 -0.46061,-0.26148 -0.12356,0.0994 -0.32471,0.0563 -0.44698,-0.0957 -0.37565,-0.46709 -0.85502,-0.23002 -0.59294,0.29325 0.14866,0.29678 -0.0227,0.22889 -0.43135,-0.17072 -0.80062,-0.78343 -0.86116,-0.32791 -0.0724,0.54506 0.29895,0.33087 0.79042,0.93917 1.09214,1.3518 l 0.54857,0.75019 -0.30591,-1.15862 -0.30595,-1.15863 0.6617,0.62397 c 0.67264,0.63427 0.83604,0.25975 0.31373,-0.7191 z m 0.0987,3.32153 c -0.0559,0.2095 -0.0113,0.60784 0.099,0.8852 0.11039,0.27734 0.1561,0.10592 0.1017,-0.38092 -0.0545,-0.48685 -0.14476,-0.71378 -0.20067,-0.50428 z m -2.2368,-15.23851 c -0.0131,0.39077 0.11363,0.81684 0.28052,0.94682 0.18378,0.14311 0.19284,-0.13708 0.0229,-0.7105 -0.23738,-0.80125 -0.284,-0.83759 -0.30346,-0.23632 z m -0.65951,-5.64243 c -0.0559,0.20952 -0.0103,0.60788 0.099,0.88521 0.11039,0.27733 0.15609,0.10591 0.1017,-0.38091 -0.0545,-0.48687 -0.14474,-0.71379 -0.20066,-0.50428 z m -0.7357,-0.27675 c -0.14958,0.12029 -0.20191,0.63959 -0.11627,1.154 l 0.15571,0.93529 0.0888,-1.05815 c 0.0488,-0.58199 0.10123,-1.10128 0.11628,-1.154 0.0151,-0.0527 -0.095,0.003 -0.2445,0.12286 z m -0.86371,-5.54482 c -0.26855,-0.0665 -0.83984,-0.0594 -1.26953,0.0157 -0.67675,0.1183 -0.63972,0.14844 0.27688,0.22536 1.03171,0.0866 1.02161,0.0956 -0.40424,0.35793 -1.30275,0.23977 -1.34792,0.27061 -0.41362,0.28246 l 1.04874,0.0139 -1.27657,0.56141 -1.27655,0.5614 1.39392,-0.3152 c 2.09947,-0.47472 3.14339,-1.40041 1.92064,-1.7031 z m -1.17876,-2.80228 c -0.12877,0.0982 -0.0401,0.27026 0.19709,0.38224 0.35799,0.16897 0.36043,0.21313 0.0145,0.25998 -0.22927,0.0309 -0.33018,0.12389 -0.22434,0.20632 0.10585,0.0824 0.47874,-0.0524 0.82866,-0.29962 0.61171,-0.43223 0.61275,-0.45487 0.0272,-0.58852 -0.33493,-0.0765 -0.7143,-0.0586 -0.84306,0.0396 z m 2.48181,14.09917 c -0.11611,0.24633 -0.12094,0.61715 -0.0106,0.82401 0.31659,0.59326 0.44131,0.41689 0.32699,-0.46228 -0.0767,-0.58924 -0.16277,-0.68771 -0.31648,-0.36174 z m -2.2288,-12.92301 c -0.49497,-0.0102 -0.89514,0.0185 -0.88928,0.0662 0.0306,0.24455 1.31805,0.54489 1.54692,0.36082 0.41679,-0.33519 0.30819,-0.40572 -0.65764,-0.42695 z m 1.51021,12.142 c -0.16203,0.0201 -0.24819,0.33376 -0.19144,0.69694 0.0984,0.63004 0.11139,0.63187 0.28304,0.0398 0.0989,-0.34141 0.1851,-0.65502 0.19145,-0.69695 0.007,-0.042 -0.12105,-0.0597 -0.28304,-0.0398 z m -0.62132,-4.80552 c -0.15306,0.19655 -0.25767,0.94329 -0.23248,1.65938 l 0.0459,1.30201 0.10122,-1.13778 c 0.0556,-0.62579 0.17735,-1.23553 0.27033,-1.35497 0.0931,-0.11946 0.15208,-0.35417 0.13129,-0.52162 -0.0249,-0.20119 -0.13224,-0.18325 -0.3162,0.053 z m -0.15856,-1.38008 c -0.87138,0.10838 -3.18568,3.1664 -3.07427,4.0622 0.0201,0.16205 0.35882,-0.29072 0.75261,-1.00613 0.99223,-1.80264 1.39021,-2.0257 0.71048,-0.39818 -0.31064,0.74383 -0.52334,1.6165 -0.47266,1.9393 0.0647,0.41197 0.16053,0.29502 0.32154,-0.3925 0.36949,-1.57755 0.61656,-1.5794 0.65856,-0.005 l 0.0391,1.46735 0.11514,-1.26294 c 0.12596,-1.3823 0.65543,-3.02627 1.08622,-3.37274 0.35964,-0.28923 0.25483,-1.08011 -0.13667,-1.03141 z m -0.64778,16.27194 c -0.46268,-1.08503 -1.47464,-2.37337 -1.66865,-2.12427 -0.0709,0.0911 0.13564,0.47741 0.45911,0.85847 0.32344,0.38105 0.83563,1.23776 1.1382,1.90378 0.62815,1.38264 0.69149,0.81637 0.0716,-0.63797 z m -2.28779,-1.4126 c -0.41248,-0.63708 -1.06732,-1.37225 -1.45516,-1.63369 -0.55271,-0.37258 -0.50589,-0.26789 0.21678,0.4841 0.50695,0.52778 1.17608,1.45427 1.48696,2.05886 0.31084,0.60459 0.55091,0.90791 0.53344,0.67408 -0.0174,-0.23383 -0.36927,-0.94638 -0.78173,-1.58347 z m -3.27497,-17.97268 -1.44663,0.39572 1.18728,-0.0756 1.18726,-0.0757 -1.28407,0.45821 -1.28409,0.45821 0.92536,0.26559 0.92533,0.26561 -0.70066,0.38002 c -0.38537,0.20902 -0.89022,0.47964 -1.12188,0.60137 -0.30133,0.15828 -0.25035,0.20679 0.17899,0.17028 0.84789,-0.072 1.81888,-1.02511 1.55271,-1.52395 -0.12329,-0.23104 -0.0544,-0.43381 0.15614,-0.46 0.3466,-0.0431 1.44191,-1.09835 1.25347,-1.20765 -0.0454,-0.0265 -0.73357,0.1302 -1.52923,0.34785 z m 2.24344,17.73355 c -0.54679,-0.42027 -0.55304,-0.39999 -0.12308,0.39833 0.24918,0.46264 0.64654,1.49023 0.883,2.28355 l 0.42989,1.44237 -0.30684,-1.8407 c -0.21408,-1.2843 -0.481,-1.97458 -0.883,-2.28356 z m -2.35334,-14.75699 c -0.36881,0.2035 -0.51461,0.35918 -0.32405,0.34591 0.46289,-0.0323 1.29254,-0.48392 1.12642,-0.61329 -0.0725,-0.0564 -0.43358,0.0639 -0.80238,0.26735 z m 2.23685,17.02433 c -0.0249,0.37331 0.0493,0.96991 0.1649,1.32577 0.11554,0.35585 0.13593,0.0504 0.0453,-0.67876 -0.0907,-0.72916 -0.18525,-1.02033 -0.21018,-0.64699 z m -4.06871,-18.174 c -0.27443,0.10921 -0.0346,0.14116 0.53233,0.0706 0.56712,-0.0705 0.79159,-0.16002 0.49882,-0.19888 -0.29287,-0.0382 -0.75681,0.019 -1.03115,0.12827 z m 3.18064,18.95759 c -0.3011,0.62333 -0.2526,1.01334 0.0916,0.73654 0.14958,-0.12029 0.24205,-0.44268 0.20549,-0.71636 -0.0574,-0.42885 -0.0984,-0.43163 -0.29708,-0.0202 z m -1.25564,1.35286 c -0.12304,0.0153 -0.35635,0.31358 -0.51844,0.66282 -0.35331,0.76133 -0.18912,0.7981 0.36821,0.0825 0.44684,-0.57378 0.48991,-0.78749 0.15022,-0.74525 z m -3.05777,-8.31358 c -0.83421,0.36665 -0.83067,0.36903 0.32262,0.25126 0.75714,-0.0774 1.05358,-0.20764 0.84413,-0.37094 -0.1995,-0.15538 -0.6448,-0.10974 -1.16686,0.11941 z m 1.25587,8.83687 c -0.30251,0.21373 -0.54174,0.45492 -0.53169,0.53593 0.01,0.081 0.26584,-0.0276 0.56825,-0.24152 0.3025,-0.21372 0.54177,-0.4549 0.53168,-0.53592 -0.01,-0.081 -0.26584,0.0276 -0.56824,0.24151 z m -0.66661,-0.62286 c -0.44578,0.34404 -0.74521,0.67639 -0.6654,0.73855 0.16582,0.12914 1.52518,-0.96794 1.49546,-1.20692 -0.011,-0.0864 -0.38428,0.12432 -0.83006,0.46837 z m -0.45041,-7.61501 c -0.21208,0.0264 -0.6186,0.2751 -0.90363,0.55214 -0.46835,0.45584 -0.43036,0.45917 0.39589,0.0347 0.9822,-0.50454 1.11931,-0.66294 0.50774,-0.58689 z m 0.23935,6.59343 c -0.34021,0.24124 -1.00297,0.59531 -1.47279,0.78685 -0.75553,0.30805 -0.7253,0.31745 0.26099,0.0796 0.61335,-0.14775 1.28292,-0.44711 1.4879,-0.66529 0.55964,-0.59556 0.42176,-0.69605 -0.27611,-0.20125 z m -0.72929,-5.63496 c -0.0558,0.007 -0.3171,0.34234 -0.58044,0.7453 l -0.47879,0.7327 0.59308,-0.64368 c 0.55734,-0.60491 0.70191,-0.86366 0.46615,-0.83432 z m -6.156486,-14.60627 c -0.305627,0.28106 2.609397,0.39401 3.227229,0.12508 0.596361,-0.25958 0.361255,-0.31221 -1.195326,-0.26743 -1.065722,0.0307 -1.98008,0.0948 -2.031902,0.14239 z m 3.967383,16.67955 c -0.221477,0.23569 -0.334465,0.48165 -0.251093,0.54659 0.229725,0.17891 0.737046,-0.30572 0.692746,-0.6618 -0.0243,-0.19534 -0.190556,-0.15198 -0.441633,0.11525 z m -5.292311,-16.14958 c -0.510046,-0.13205 -1.358675,-0.46057 -1.885833,-0.73006 -0.861338,-0.44035 -0.906727,-0.43974 -0.448007,0.006 0.28075,0.27278 1.211764,0.72258 2.068932,0.99954 1.46357,0.47287 1.504894,0.51204 0.67831,0.64293 l -0.88017,0.1394 1.017147,0.16065 c 0.711626,0.11246 1.32799,0.01 2.051937,-0.33973 l 1.034792,-0.50043 -1.354869,-0.0691 c -0.74518,-0.038 -1.772173,-0.1772 -2.282241,-0.30914 z m 3.223115,7.04615 c -0.05593,0.2095 -0.01133,0.60784 0.09904,0.8852 0.110387,0.27734 0.156089,0.10591 0.101596,-0.38092 -0.05454,-0.48686 -0.144746,-0.71379 -0.20067,-0.50427 z m -0.552474,1.1963 c -0.174504,-0.08 -0.300776,-0.0132 -0.28062,0.14919 0.02011,0.16204 0.179437,0.36005 0.353913,0.44005 0.174494,0.08 0.300756,0.0132 0.28061,-0.14919 -0.02011,-0.16205 -0.179447,-0.36005 -0.353903,-0.44005 z m -6.324114,-5.91098 -1.204403,-0.49807 0.919196,0.64147 c 0.992605,0.6927 0.950877,0.83177 -0.131451,0.43803 -0.645946,-0.235 -0.653058,-0.22335 -0.126494,0.20709 0.64213,0.52492 3.144088,0.54495 4.348424,0.0348 0.703456,-0.29819 0.597802,-0.33688 -0.901961,-0.3314 -0.934412,0.003 -2.240881,-0.21804 -2.903311,-0.49191 z m 4.173624,11.56389 c -0.817253,0.4109 -0.932637,0.54167 -0.431619,0.48896 0.681866,-0.0717 1.906125,-0.77028 1.670959,-0.9534 -0.06813,-0.0531 -0.625824,0.15595 -1.23936,0.4644 z m -0.329565,-2.06757 -0.696931,0.93844 0.891668,-0.78679 c 0.490422,-0.43274 0.804054,-0.85504 0.696924,-0.93844 -0.107132,-0.0834 -0.508335,0.27065 -0.891661,0.78679 z m -0.350165,1.53115 c -0.6051,0.31116 -0.873263,0.54698 -0.595908,0.52406 0.537413,-0.0442 1.999237,-0.85372 1.80925,-1.00165 -0.06228,-0.0486 -0.60823,0.16643 -1.213342,0.47759 z m 0.559063,-3.18857 c -0.0637,0.009 -0.169156,0.22997 -0.234377,0.49345 -0.06798,0.27469 -0.0038,0.38681 0.150298,0.26283 0.258438,-0.20784 0.322716,-0.78596 0.08409,-0.75629 z m -3.148687,-5.77131 c -0.734016,0.0914 -0.895042,0.18652 -0.551735,0.32621 0.396344,0.16128 1.627852,-0.13688 1.596804,-0.38659 -0.0046,-0.0376 -0.474992,-0.01 -1.04507,0.0603 z m -3.108257,-4.94953 c -0.176754,0.19627 0.3776,0.68133 1.059434,0.92712 0.628005,0.22633 0.615918,0.19261 -0.140077,-0.39078 -0.455049,-0.3512 -0.868766,-0.59253 -0.919387,-0.53633 z"
       id="path19620-6" />
    <ellipse
       style="opacity:1;fill:#00ffff;fill-opacity:1;stroke:none;stroke-width:2.77801;stroke-miterlimit:4;stroke-dasharray:none;stroke-opacity:1"
       id="path34630"
       cx="103.73313"
       cy="121.3404"
       rx="16.161509"
       ry="5.9895687" />
    <ellipse
       style="opacity:1;fill:#00ffff;fill-opacity:1;stroke:none;stroke-width:1.022;stroke-miterlimit:4;stroke-dasharray:none;stroke-opacity:1"
       id="path34734"
       cx="92.729767"
       cy="117.3956"
       rx="3.3098743"
       ry="1.8382292" />
    <ellipse
       style="opacity:1;fill:#00ffff;fill-opacity:1;stroke:none;stroke-width:1.022;stroke-miterlimit:4;stroke-dasharray:none;stroke-opacity:1"
       id="path34736"
       cx="89.920982"
       cy="116.6675"
       rx="1.7297462"
       ry="1.936283" />
    <ellipse
       style="opacity:1;fill:#00ffff;fill-opacity:1;stroke:none;stroke-width:1.022;stroke-miterlimit:4;stroke-dasharray:none;stroke-opacity:1"
       id="path34738"
       cx="112.92403"
       cy="115.81554"
       rx="3.9242003"
       ry="4.8536158" />
    <ellipse
       style="opacity:1;fill:#00ffff;fill-opacity:1;stroke:none;stroke-width:1.022;stroke-miterlimit:4;stroke-dasharray:none;stroke-opacity:1"
       id="path34740"
       cx="98.543892"
       cy="127.79468"
       rx="5.4474096"
       ry="1.3941238" />
    <ellipse
       style="opacity:1;fill:#00ffff;fill-opacity:1;stroke:none;stroke-width:1.022;stroke-miterlimit:4;stroke-dasharray:none;stroke-opacity:1"
       id="path34742"
       cx="95.290947"
       cy="130.11823"
       rx="2.2460883"
       ry="2.0653687" />
    <ellipse
       style="opacity:1;fill:#00ffff;fill-opacity:1;stroke:none;stroke-width:1.022;stroke-miterlimit:4;stroke-dasharray:none;stroke-opacity:1"
       id="path34744"
       cx="115.68645"
       cy="113.05311"
       rx="1.3166724"
       ry="2.194454" />
    <ellipse
       style="opacity:1;fill:#00ffff;fill-opacity:1;stroke:none;stroke-width:1.022;stroke-miterlimit:4;stroke-dasharray:none;stroke-opacity:1"
       id="path34746"
       cx="117.51947"
       cy="117.67437"
       rx="1.0326843"
       ry="1.1359527" />
    <ellipse
       style="opacity:1;fill:#00ffff;fill-opacity:1;stroke:none;stroke-width:1.022;stroke-miterlimit:4;stroke-dasharray:none;stroke-opacity:1"
       id="path34748"
       cx="118.06163"
       cy="116.43516"
       rx="2.400991"
       ry="2.0653687" />
    <ellipse
       style="opacity:1;fill:#00ffff;fill-opacity:1;stroke:none;stroke-width:1.022;stroke-miterlimit:4;stroke-dasharray:none;stroke-opacity:1"
       id="path34852"
       cx="113.38873"
       cy="127.14925"
       rx="6.454277"
       ry="4.363091" />
    <ellipse
       style="opacity:1;fill:#00ffff;fill-opacity:1;stroke:none;stroke-width:1.022;stroke-miterlimit:4;stroke-dasharray:none;stroke-opacity:1"
       id="path34854"
       cx="102.57137"
       cy="130.78946"
       rx="3.2787724"
       ry="3.6660292" />
    <circle
       style="opacity:1;fill:#00ffff;fill-opacity:1;stroke:none;stroke-width:1.022;stroke-miterlimit:4;stroke-dasharray:none;stroke-opacity:1"
       id="path34856"
       cx="116.77077"
       cy="134.89438"
       r="4.8794332" />
    <ellipse
       style="opacity:1;fill:#00ffff;fill-opacity:1;stroke:none;stroke-width:1.022;stroke-miterlimit:4;stroke-dasharray:none;stroke-opacity:1"
       id="path34858"
       cx="118.72921"
       cy="130.74532"
       rx="1.9842558"
       ry="2.7441063" />
    <ellipse
       style="opacity:1;fill:#00ffff;fill-opacity:1;stroke:none;stroke-width:1.022;stroke-miterlimit:4;stroke-dasharray:none;stroke-opacity:1"
       id="path34860"
       cx="108.06763"
       cy="134.23064"
       rx="4.7014918"
       ry="4.5254917" />
    <ellipse
       style="opacity:1;fill:#00ffff;fill-opacity:1;stroke:none;stroke-width:1.022;stroke-miterlimit:4;stroke-dasharray:none;stroke-opacity:1"
       id="path34862"
       cx="104.55928"
       cy="137.06302"
       rx="2.6849792"
       ry="2.9689672" />
    <ellipse
       style="opacity:1;fill:#00ffff;fill-opacity:1;stroke:none;stroke-width:1.022;stroke-miterlimit:4;stroke-dasharray:none;stroke-opacity:1"
       id="path34864"
       cx="104.62502"
       cy="136.48204"
       rx="3.835037"
       ry="2.4139881" />
    <ellipse
       style="opacity:1;fill:#00ffff;fill-opacity:1;stroke:none;stroke-width:1.022;stroke-miterlimit:4;stroke-dasharray:none;stroke-opacity:1"
       id="path34866"
       cx="102.1297"
       cy="138.43881"
       rx="1.2364427"
       ry="0.31730342" />
    <ellipse
       style="opacity:1;fill:#00ffff;fill-opacity:1;stroke:none;stroke-width:1.68057;stroke-miterlimit:4;stroke-dasharray:none;stroke-opacity:1"
       id="path34868"
       cx="101.81989"
       cy="138.20647"
       rx="1.6495163"
       ry="1.169268" />
    <ellipse
       style="opacity:1;fill:#00ffff;fill-opacity:1;stroke:none;stroke-width:1.022;stroke-miterlimit:4;stroke-dasharray:none;stroke-opacity:1"
       id="path34972"
       cx="115.78973"
       cy="140.10944"
       rx="3.2787724"
       ry="3.1238699" />
    <ellipse
       style="opacity:1;fill:#00ffff;fill-opacity:1;stroke:none;stroke-width:2.07885;stroke-miterlimit:4;stroke-dasharray:none;stroke-opacity:1"
       id="path34974"
       cx="118.23942"
       cy="109.98258"
       rx="1.5977199"
       ry="1.1892985" />
    <ellipse
       style="opacity:1;fill:#00ffff;fill-opacity:1;stroke:none;stroke-width:0.967001;stroke-miterlimit:4;stroke-dasharray:none;stroke-opacity:1"
       id="path35078"
       cx="-5.538269"
       cy="158.58968"
       rx="7.9229932"
       ry="0.69891781"
       transform="matrix(0.53028769,-0.84781777,0.81815235,0.5750015,0,0)" />
    <ellipse
       style="opacity:1;fill:#00ffff;fill-opacity:1;stroke:none;stroke-width:1.022;stroke-miterlimit:4;stroke-dasharray:none;stroke-opacity:1"
       id="path35262"
       cx="100.18703"
       cy="133.4557"
       rx="1.0945415"
       ry="1.03666" />
    <ellipse
       style="opacity:1;fill:#00ffff;fill-opacity:1;stroke:none;stroke-width:1.06351;stroke-miterlimit:4;stroke-dasharray:none;stroke-opacity:1"
       id="path35366"
       cx="213.54248"
       cy="-136.96121"
       rx="1.0866568"
       ry="6.2719512"
       transform="matrix(0.22428046,0.97452464,-0.57952191,0.81495666,0,0)"
       clip-path="url(#clipPath35520)" />
  </g>
  <g
     id="layer4"
     style="display:inline"
     transform="translate(-31.731665,-71.370205)">
    <path
       style="opacity:1;fill:#0000ff;stroke:#000000;stroke-width:0.097;stroke-linecap:butt;stroke-linejoin:round;stroke-miterlimit:4;stroke-dasharray:none;stroke-opacity:1;paint-order:markers fill stroke"
       d="m 129.74599,93.661268 c -4.24778,6.758242 -7.82622,12.296302 -7.9521,12.306792 -0.12587,0.0105 -0.56562,-0.18452 -0.97724,-0.43335 l -0.74837,-0.45242 7.68913,-11.897961 c 4.22903,-6.543868 7.84965,-12.113379 8.04583,-12.376684 0.31221,-0.419059 0.43833,-0.413618 1.01135,0.04359 0.65409,0.521879 0.64789,0.533136 -7.0686,12.810033 z m -0.13192,-1.009815 c -0.63535,0.867805 -1.14045,1.708607 -1.12249,1.868422 0.018,0.159816 0.55141,-0.476501 1.18543,-1.414033 1.48401,-2.194433 1.44056,-2.508093 -0.0629,-0.454397 z m -2.4862,3.800246 c -0.45435,0.647788 -1.53981,2.383081 -2.41212,3.856231 -1.76784,2.98543 -0.83682,1.78189 1.6689,-2.157461 1.70706,-2.683684 2.15969,-3.718265 0.74322,-1.69877 z m -6.2029,12.154151 c -0.41984,1.19414 -0.73693,2.40615 -0.70464,2.69334 0.12525,1.11414 -2.32004,0.51687 -3.94763,-0.96422 l -1.10474,-1.00533 1.47746,-1.03565 c 0.81261,-0.5696 1.90474,-1.46461 2.42696,-1.98891 l 0.94948,-0.95323 0.83322,0.54143 0.83325,0.5414 z m -1.79426,1.27123 c -0.32207,0.22197 -0.90939,0.37874 -1.30527,0.34804 -0.9728,-0.075 -0.87194,0.23802 0.23693,0.73537 1.2493,0.5603 1.51585,0.47728 1.55277,-0.48359 0.0171,-0.45386 0.0473,-0.86525 0.0666,-0.91424 0.0191,-0.049 -0.22893,0.0922 -0.5509,0.31441 z m 2.83643,8.32706 c -0.17223,0.0195 -0.21312,0.29484 -0.091,0.61216 0.17595,0.4566 0.11085,0.54798 -0.31196,0.43801 -0.53461,-0.13903 -0.4926,0.12618 0.25086,1.58439 0.11831,0.232 0.009,0.31139 -0.31418,0.22744 -0.44031,-0.11456 -0.44768,0.29992 -0.0656,3.69811 0.3911,3.4789 0.49674,3.89454 1.16107,4.56813 l 0.73081,0.74101 -0.66225,-0.13102 c -0.84448,-0.16713 -0.81482,0.0366 0.10854,0.74596 l 0.73575,0.56522 -0.75698,-0.0907 c -0.74751,-0.0895 -0.75468,-0.0653 -0.56806,1.89228 0.35513,3.72542 0.54843,7.02155 0.38197,6.51317 -0.27748,-0.84753 -0.68155,-0.17866 -0.55768,0.9232 0.0639,0.56791 -0.0156,0.97029 -0.17675,0.89415 -0.16106,-0.0761 -0.34872,0.14441 -0.41716,0.48989 -0.0922,0.46623 -0.2855,0.5964 -0.74907,0.50466 -0.38076,-0.0754 -0.541,-0.016 -0.41026,0.14959 0.12357,0.15748 -0.33723,0.42042 -1.08782,0.62073 -0.87222,0.2328 -1.28595,0.49257 -1.25289,0.78669 0.0352,0.31273 -0.0927,0.37939 -0.44384,0.23158 -0.27123,-0.11411 -1.07091,-0.0522 -1.77705,0.13757 -0.97729,0.26266 -1.2945,0.25056 -1.32837,-0.0507 -0.0557,-0.49601 -0.41209,-0.46723 -0.86227,0.0696 -0.28157,0.3358 -0.32398,0.29317 -0.22857,-0.22976 0.0644,-0.35315 -0.0458,-0.94572 -0.2449,-1.31686 -0.2304,-0.42942 -0.34924,-0.49943 -0.32679,-0.19252 0.0194,0.26527 -0.13927,0.66373 -0.35266,0.88548 -0.33019,0.34318 -0.38026,0.24572 -0.33623,-0.65414 0.0382,-0.78022 -0.11955,-1.23111 -0.60181,-1.72008 l -0.65358,-0.66273 -0.22698,0.89275 c -0.26415,1.03893 -0.85939,1.2787 -0.71597,0.2884 l 0.097,-0.67022 -0.75452,0.74414 c -0.41499,0.40927 -0.89891,0.76035 -1.0754,0.7802 -0.17648,0.0198 -0.049,-0.20377 0.28318,-0.4969 0.96924,-0.85519 0.64259,-1.08798 -0.48357,-0.34463 -1.10644,0.73036 -2.36733,1.08174 -1.45957,0.40672 0.26537,-0.1973 0.46018,-0.55732 0.43288,-0.80002 -0.0391,-0.34781 -0.27245,-0.37294 -1.10216,-0.11865 -0.75379,0.23103 -1.00436,0.22064 -0.88273,-0.0367 0.11633,-0.24603 -0.20741,-0.31679 -1.02771,-0.22458 -0.86778,0.0976 -1.21121,0.0128 -1.24726,-0.3079 -0.0274,-0.24339 -0.18802,-0.42708 -0.35763,-0.40791 -0.16935,0.019 -0.88687,-0.39167 -1.59454,-0.91267 -1.000164,-0.73636 -1.223274,-1.04389 -1.001934,-1.38113 0.1566,-0.23862 0.19902,-0.42422 0.0943,-0.41246 -0.10474,0.0118 -0.0102,-0.33493 0.2099,-0.77048 0.370884,-0.73355 0.364774,-0.78788 -0.0829,-0.73756 -0.44087,0.0496 -0.4499,-0.012 -0.10297,-0.69789 0.356934,-0.706 0.340684,-0.75795 -0.2643,-0.84559 -0.48931,-0.0712 -0.61456,-0.24527 -0.51982,-0.72398 0.10075,-0.50893 0.0307,-0.58177 -0.36341,-0.37748 -0.33197,0.17215 -0.43238,0.135 -0.31372,-0.11596 0.2242,-0.4742 0.25171,-0.48185 -1.49047,0.41449 -0.88731,0.45648 -1.49703,0.63609 -1.51812,0.44789 -0.0195,-0.17321 -0.39586,-0.23265 -0.836415,-0.13203 -0.555087,0.1267 -0.788541,0.0565 -0.760361,-0.22856 0.02558,-0.25931 -0.118531,-0.32885 -0.390041,-0.18808 -0.641997,0.33288 -1.236697,-0.74542 -1.236269,-2.24158 2.63e-4,-0.8386 -0.09844,-1.21769 -0.27991,-1.07525 -0.179235,0.1407 -0.241633,-0.0668 -0.173054,-0.57552 0.08974,-0.66565 0.0249,-0.75917 -0.394251,-0.57273 -0.349789,0.15557 -0.30068,-6.9e-4 0.162562,-0.51414 l 0.664046,-0.73696 -0.714926,0.28435 c -0.69467,0.27627 -0.692272,0.25977 0.08372,-0.58401 0.446392,-0.48534 0.606011,-0.82365 0.36191,-0.76698 -0.240209,0.0557 -0.770642,0.12092 -1.178735,0.14481 -0.59287,0.0347 -0.659527,-0.0237 -0.331617,-0.2923 0.342022,-0.27982 0.314467,-0.32571 -0.165448,-0.27557 -0.440163,0.046 -0.503518,-0.0304 -0.268957,-0.32443 0.234561,-0.29399 0.143572,-0.44601 -0.386243,-0.64535 -0.387848,-0.14593 -0.679669,-0.48523 -0.662608,-0.77043 0.01674,-0.28034 -0.09357,-0.49573 -0.245218,-0.47867 -0.39263,0.0442 -0.851161,-2.07095 -0.553273,-2.5519 0.165009,-0.26638 0.14513,-0.38976 -0.05905,-0.3668 -0.575982,0.0647 -0.896629,-1.65681 -0.613754,-3.29531 0.270038,-1.56418 1.537993,-3.61181 2.005547,-3.23876 0.12286,0.098 0.20437,0.009 0.1811,-0.19795 -0.02848,-0.25284 0.203664,-0.34302 0.708017,-0.27505 0.586967,0.079 0.702341,0.009 0.530034,-0.32367 -0.195852,-0.37772 -0.07471,-0.39109 1.09357,-0.12084 1.03308,0.23887 1.353419,0.22001 1.499187,-0.0883 0.138116,-0.29214 0.376872,-0.24887 0.936447,0.16963 0.413104,0.30894 1.363974,0.63216 2.113074,0.71825 1.83812,0.21134 1.95094,0.18428 1.41753,-0.33914 -0.40325,-0.39573 -0.39407,-0.43546 0.0734,-0.31779 1.77523,0.44679 7.48096,-0.28905 6.38219,-0.82307 -0.30741,-0.14942 -0.1,-0.2568 0.66966,-0.34653 1.11834,-0.13045 3.08479,-1.04279 3.04328,-1.41207 -0.0121,-0.10832 -0.34692,-0.0961 -0.74384,0.0269 -1.09894,0.34095 -0.89365,0.0716 0.66853,-0.87723 0.80401,-0.48833 1.24149,-0.90919 1.011,-0.97261 -0.77103,-0.2121 0.76019,-0.28913 1.95188,-0.0982 0.81937,0.13132 1.23082,0.0883 1.33866,-0.13973 0.30987,-0.65547 2.63423,0.0506 3.4944,1.062 0.97785,1.14936 2.69956,2.08759 3.63737,1.98216 0.38168,-0.0429 0.71671,0.0873 0.74451,0.28975 0.24206,1.76033 1.20861,4.7653 1.66133,5.165 0.30316,0.26765 0.41029,0.50247 0.2381,0.52182 z m -2.08383,-2.82796 c -0.059,0.21203 -0.0221,0.54393 0.0829,0.73756 0.10465,0.19363 0.15297,0.0202 0.10731,-0.38551 -0.0456,-0.40567 -0.13124,-0.56409 -0.19024,-0.35206 z m -0.62934,0.67285 -0.41376,-1.22778 0.26108,1.27652 c 0.14359,0.70209 0.44066,1.40812 0.66038,1.56883 0.29973,0.21962 0.33773,0.20749 0.15271,-0.0488 -0.13554,-0.18762 -0.43255,-0.89365 -0.66039,-1.56882 z m -0.75026,4.64548 c -0.42795,0.0302 -0.48409,0.96798 -0.0949,1.5859 0.34611,0.54954 0.38123,0.55447 0.34246,0.0479 -0.0411,-0.53652 -0.0126,-0.5423 0.57745,-0.11778 0.60832,0.43762 0.60859,0.42682 0.0141,-0.54299 -0.33385,-0.54424 -0.71124,-0.98217 -0.83862,-0.9732 z m 2.20299,13.06937 c -0.14327,-0.0677 -0.29772,-0.79826 -0.34317,-1.62344 -0.069,-1.25298 -0.14206,-1.43185 -0.44286,-1.08514 -0.2351,0.27097 -0.24965,0.52325 -0.042,0.72625 0.20359,0.19898 0.21291,0.39377 0.026,0.54055 -0.16078,0.12623 -0.20206,0.34449 -0.0916,0.48506 0.11033,0.14054 0.0437,0.27318 -0.14796,0.29473 -0.25974,0.0292 -0.24229,0.14144 0.0684,0.44044 0.34495,0.33189 0.32336,0.41177 -0.12484,0.46216 -0.48742,0.0549 -0.49121,0.10136 -0.0376,0.46332 0.28533,0.22765 0.71,0.29576 0.97793,0.15679 0.50805,-0.2635 0.58089,-0.66076 0.15777,-0.86081 z m -0.77627,1.54717 c -0.91814,-0.66047 -0.95952,-0.33077 -0.0464,0.36964 0.4137,0.31733 0.7401,0.46953 0.72533,0.33822 -0.0148,-0.13132 -0.32028,-0.44985 -0.67892,-0.70786 z m -1.84955,-17.86502 c -0.30151,0.0339 -0.83973,1.89975 -0.75794,2.62742 0.0502,0.44619 -0.0483,0.70589 -0.23414,0.61802 -0.17636,-0.0834 -0.25895,-0.28215 -0.18345,-0.44175 0.0754,-0.15955 -0.06,-0.18786 -0.30096,-0.063 -0.34096,0.1768 -0.46217,0.013 -0.54668,-0.73863 -0.12334,-1.09703 -0.36719,-0.99835 -0.44681,0.18071 -0.0294,0.43425 0.0731,0.77532 0.2276,0.75795 0.15452,-0.0174 0.39587,0.22632 0.53636,0.54155 0.14016,0.31536 0.35956,0.4914 0.48678,0.39154 0.12722,-0.0999 0.31767,-0.0224 0.42322,0.17214 0.30122,0.5552 0.73182,-0.44066 0.64411,-1.48963 -0.0408,-0.48835 0.01,-1.16626 0.11295,-1.50648 0.22021,-0.7276 0.233,-1.07182 0.039,-1.05002 z m 1.70748,19.11528 c -0.20018,-0.38898 -0.68689,-0.83181 -1.08157,-0.98404 l -0.71762,-0.27679 0.70264,0.63375 c 0.38647,0.34857 0.87936,0.88277 1.09534,1.18711 0.48681,0.68603 0.48746,0.38485 0.001,-0.56003 z m -3.35013,-11.87161 c -0.38897,-0.57995 -0.61425,-0.72405 -0.67723,-0.43319 -0.10424,0.48154 2.35055,2.45048 2.95973,2.37392 0.20882,-0.0262 -0.0881,-0.27811 -0.66001,-0.5597 -0.57181,-0.28161 -1.30194,-0.90307 -1.62249,-1.38103 z m 1.74846,11.56594 c -0.1347,0.0151 0.16622,0.51908 0.66872,1.11984 0.50251,0.60076 0.97087,1.08586 1.04082,1.07799 0.0699,-0.007 -0.23097,-0.51179 -0.66874,-1.11983 -0.43776,-0.60803 -0.90613,-1.09315 -1.0408,-1.078 z m -1.85037,-22.52219 c -0.30004,0.37606 -0.45641,0.67372 -0.3475,0.66147 0.29546,-0.0332 1.19239,-1.10636 1.03181,-1.2345 -0.0763,-0.0608 -0.38424,0.19702 -0.68431,0.57303 z m -0.54435,-1.29883 c -0.48238,0.45946 -1.32685,1.01966 -1.87664,1.24489 -0.7523,0.30795 -0.83026,0.39717 -0.31538,0.35954 0.37632,-0.0275 0.61785,0.0904 0.53675,0.26192 -0.22912,0.48461 0.76562,-0.0829 1.75268,-0.99989 0.48353,-0.44921 0.85674,-1.01588 0.82937,-1.25928 -0.0377,-0.3349 -0.26307,-0.23935 -0.92676,0.39286 z m -0.0973,13.05738 c -0.24611,-0.55204 -0.83653,-0.76894 -0.78241,-0.28738 0.0493,0.43898 1.09251,1.43499 1.77425,1.69409 l 0.68619,0.26078 -0.71009,-0.54443 c -0.39051,-0.29944 -0.8261,-0.80481 -0.96794,-1.12306 z m 2.0038,15.85924 c -0.5092,-0.31438 -0.51846,-0.30278 -0.0989,0.12391 0.44067,0.44809 0.70051,0.57714 0.67322,0.33433 -0.007,-0.0613 -0.26535,-0.26748 -0.57434,-0.45825 z m -1.16198,-4.39793 c -0.33673,-0.0482 -0.59759,0.0406 -0.57982,0.19864 0.0178,0.15802 -0.2427,0.23287 -0.57881,0.16635 -0.36422,-0.072 -0.59601,0.0133 -0.57375,0.21139 0.0206,0.18276 0.17998,0.22037 0.35432,0.0835 0.20536,-0.1612 0.25114,-0.1093 0.12987,0.14696 -0.14864,0.31439 -0.0594,0.30771 0.43436,-0.0324 0.34181,-0.23552 0.5566,-0.2911 0.47736,-0.12339 -0.0793,0.16765 0.14498,0.51279 0.4983,0.76698 0.70661,0.5083 0.79236,0.32384 0.22935,-0.49322 -0.3038,-0.4409 -0.27791,-0.50734 0.15398,-0.39503 0.32305,0.084 0.4338,0.0263 0.29311,-0.15302 -0.12437,-0.15843 -0.50157,-0.32795 -0.83825,-0.37669 z m -1.24316,-16.63351 c -0.15381,-0.0727 -0.31896,0.13972 -0.36711,0.47178 -0.0861,0.59409 0.18096,0.7655 0.52356,0.33611 0.24259,-0.30405 0.17542,-0.65098 -0.15645,-0.80789 z m -0.36367,6.02691 c -0.14412,-0.29487 -0.32692,-0.45486 -0.40616,-0.35555 -0.21745,0.27253 0.95561,1.90499 1.338,1.86201 0.20557,-0.023 0.1411,-0.21613 -0.16833,-0.50389 -0.2758,-0.25653 -0.6194,-0.70769 -0.76355,-1.00255 z m -1.59764,-13.20538 c -0.43664,0.13562 -0.61711,0.28443 -0.40112,0.3306 0.38953,0.0834 1.233,-0.23886 1.20797,-0.46139 -0.008,-0.0638 -0.37025,-0.004 -0.80686,0.13077 z m 3.57078,28.71712 c -0.087,0.10909 -0.0688,0.36471 0.0403,0.56808 0.12064,0.22478 0.18269,0.147 0.15821,-0.19827 -0.0221,-0.31246 -0.11146,-0.47888 -0.19846,-0.36982 z m -0.97774,-3.38051 c -0.12686,-0.24472 -0.33276,-0.36479 -0.4575,-0.26689 -0.12472,0.0979 -0.32535,0.0525 -0.44582,-0.10095 -0.37011,-0.47149 -0.85225,-0.24009 -0.59635,0.28624 0.14515,0.29851 -0.0254,0.2286 -0.42931,-0.1758 -0.79133,-0.79281 -0.85723,-0.33804 -0.0788,0.54417 0.29503,0.33437 0.77929,0.94842 1.07612,1.36458 l 0.53969,0.75661 -0.29223,-1.16215 -0.29227,-1.16215 0.6543,0.63172 c 0.66512,0.64216 0.83292,0.26959 0.32219,-0.71535 z m 0.0595,3.32246 c -0.0584,0.20883 -0.0185,0.60767 0.0886,0.88631 0.10711,0.27862 0.15484,0.10775 0.10618,-0.37969 -0.0488,-0.48746 -0.13633,-0.71544 -0.19471,-0.50661 z m -2.05698,-15.26382 c -0.0177,0.39059 0.10399,0.81812 0.26934,0.95006 0.18208,0.14527 0.19444,-0.13479 0.0313,-0.71018 -0.22791,-0.80399 -0.2741,-0.84088 -0.30065,-0.23988 z m -0.59294,-5.64981 c -0.0584,0.20884 -0.0175,0.60771 0.0886,0.88631 0.10711,0.27862 0.15483,0.10775 0.10618,-0.37968 -0.0488,-0.48748 -0.13631,-0.71545 -0.1947,-0.50661 z m -0.73238,-0.28541 c -0.15099,0.11852 -0.20944,0.63717 -0.12987,1.15255 l 0.14467,0.93706 0.10125,-1.05703 c 0.0557,-0.58137 0.11421,-1.10001 0.12988,-1.15255 0.0157,-0.0525 -0.095,0.002 -0.24593,0.11997 z m -0.79828,-5.55461 c -0.26774,-0.0697 -0.83908,-0.0693 -1.26962,7.4e-4 -0.6781,0.11031 -0.64143,0.14088 0.2742,0.2286 1.03062,0.0988 1.02041,0.10764 -0.40843,0.35314 -1.30549,0.2244 -1.35102,0.2547 -0.41692,0.27757 l 1.0485,0.0263 -1.2831,0.54632 -1.28308,0.54631 1.39754,-0.29874 c 2.10492,-0.44994 3.15968,-1.36325 1.94058,-1.68034 z m -1.14564,-2.81599 c -0.12992,0.0967 -0.0433,0.26977 0.19257,0.38454 0.35598,0.17318 0.3579,0.21736 0.0114,0.26013 -0.22962,0.0282 -0.33162,0.11999 -0.22676,0.20366 0.10487,0.0836 0.47933,-0.0468 0.83214,-0.28983 0.61676,-0.42498 0.61807,-0.44761 0.0341,-0.58816 -0.334,-0.0804 -0.71356,-0.067 -0.84347,0.0297 z m 2.31541,14.12745 c -0.11901,0.24495 -0.12821,0.61568 -0.0203,0.82383 0.30958,0.59695 0.43637,0.42207 0.33242,-0.45839 -0.0697,-0.5901 -0.15465,-0.68958 -0.31219,-0.36545 z m -2.07628,-12.94839 c -0.49482,-0.016 -0.8953,0.008 -0.89,0.0557 0.0277,0.2449 1.31153,0.5604 1.54256,0.37904 0.42071,-0.33026 0.31295,-0.40206 -0.65256,-0.43468 z m 1.36695,12.15897 c -0.16226,0.0182 -0.25211,0.33081 -0.19965,0.69463 0.091,0.63116 0.10394,0.63314 0.28255,0.0431 0.1029,-0.34022 0.19281,-0.65279 0.19966,-0.69464 0.007,-0.0419 -0.12034,-0.0611 -0.28255,-0.0431 z m -0.56462,-4.81252 c -0.15537,0.19474 -0.26878,0.94019 -0.25203,1.65653 l 0.0305,1.30246 0.11462,-1.13651 c 0.063,-0.62509 0.19191,-1.23335 0.28629,-1.35169 0.0945,-0.11835 0.15625,-0.35235 0.13743,-0.52003 -0.0225,-0.20147 -0.13007,-0.1848 -0.3168,0.0493 z m -0.14228,-1.38185 c -0.8726,0.0981 -3.22279,3.12862 -3.12195,4.02567 0.0182,0.16228 0.36222,-0.28647 0.76442,-0.99719 1.01341,-1.79081 1.414,-2.00916 0.71513,-0.38977 -0.31939,0.74011 -0.54237,1.61022 -0.4955,1.93359 0.0598,0.41271 0.15704,0.29689 0.32615,-0.38868 0.38806,-1.57308 0.63514,-1.57202 0.65857,0.003 l 0.0218,1.46771 0.13002,-1.26149 c 0.14225,-1.38072 0.69106,-3.01833 1.12591,-3.3597 0.36302,-0.28497 0.26755,-1.07703 -0.1245,-1.03295 z m -0.83958,16.26317 c -0.44986,-1.09041 -1.44656,-2.39059 -1.64349,-2.14379 -0.072,0.0902 0.13,0.47897 0.44895,0.86382 0.31893,0.38484 0.82098,1.24753 1.11568,1.91707 0.6118,1.38995 0.68181,0.82446 0.0791,-0.63709 z m -2.27098,-1.43947 c -0.40494,-0.6419 -1.05107,-1.38474 -1.4358,-1.65074 -0.54828,-0.37907 -0.50269,-0.27383 0.21106,0.48663 0.50069,0.53372 1.15885,1.46803 1.46258,2.07624 0.30369,0.60822 0.54017,0.91435 0.52546,0.68033 -0.0147,-0.23402 -0.35809,-0.95067 -0.76301,-1.59258 z m -3.06284,-18.01005 -1.4512,0.37864 1.18809,-0.0616 1.18807,-0.0617 -1.28938,0.44303 -1.2894,0.44304 0.92216,0.27648 0.92214,0.27651 -0.7051,0.37173 c -0.3878,0.20446 -0.89581,0.46911 -1.12889,0.5881 -0.30317,0.15472 -0.25277,0.20382 0.17697,0.17238 0.84868,-0.062 1.83084,-1.0036 1.57057,-1.50554 -0.12056,-0.23248 -0.0493,-0.43442 0.16155,-0.45813 0.34709,-0.039 1.45476,-1.08127 1.26762,-1.19278 -0.0451,-0.027 -0.73505,0.12154 -1.53322,0.32979 z m 2.0342,17.75877 c -0.5418,-0.42669 -0.54829,-0.40648 -0.12777,0.39685 0.24371,0.46555 0.62893,1.49775 0.85602,2.2938 l 0.41285,1.44734 -0.28511,-1.84419 c -0.19893,-1.28673 -0.45769,-1.98011 -0.85602,-2.29381 z m -2.17919,-14.78371 c -0.37118,0.19914 -0.51881,0.35309 -0.3281,0.34207 0.46323,-0.0268 1.29815,-0.46865 1.13357,-0.59997 -0.0718,-0.0573 -0.4343,0.0588 -0.80548,0.25787 z m 2.03598,17.04952 c -0.0293,0.37299 0.0379,0.97042 0.14925,1.32762 0.11134,0.35719 0.13533,0.052 0.0533,-0.67818 -0.0821,-0.73018 -0.1732,-1.02244 -0.20253,-0.64942 z m -3.85416,-18.22071 c -0.27569,0.10597 -0.0363,0.14074 0.53147,0.0769 0.56791,-0.0638 0.79342,-0.15067 0.50113,-0.19298 -0.2924,-0.0416 -0.75699,0.0101 -1.0326,0.1161 z m 2.95691,18.99377 c -0.30843,0.61974 -0.26453,1.0103 0.0829,0.73757 0.15099,-0.11851 0.24725,-0.43979 0.21392,-0.71388 -0.0523,-0.4295 -0.0933,-0.43276 -0.29682,-0.0237 z m -1.2715,1.33797 c -0.12322,0.0138 -0.36003,0.30935 -0.52622,0.65666 -0.36227,0.75711 -0.19852,0.79581 0.36721,0.0868 0.45357,-0.56847 0.49916,-0.78166 0.15899,-0.74342 z m -2.95954,-8.34906 c -0.83848,0.35679 -0.83497,0.35921 0.31963,0.25505 0.758,-0.0685 1.05596,-0.19521 0.84845,-0.36096 -0.19766,-0.15772 -0.64346,-0.11734 -1.16819,0.10564 z m 1.15159,8.85107 c -0.30501,0.21014 -0.54707,0.4485 -0.53797,0.52962 0.009,0.0811 0.26615,-0.0245 0.57106,-0.2348 0.305,-0.21014 0.54709,-0.44849 0.53796,-0.52962 -0.009,-0.0811 -0.26615,0.0245 -0.57105,0.2348 z m -0.65922,-0.63068 c -0.4498,0.33876 -0.75313,0.66756 -0.67406,0.73065 0.16429,0.13109 1.53649,-0.94989 1.50959,-1.1892 -0.01,-0.0865 -0.38572,0.11978 -0.83553,0.45855 z m -0.36059,-7.61979 c -0.21238,0.0239 -0.62181,0.26779 -0.91008,0.54145 -0.47369,0.45028 -0.43575,0.45406 0.39545,0.0394 0.98808,-0.49292 1.12705,-0.6497 0.51463,-0.58086 z m 0.16159,6.59579 c -0.34303,0.23721 -1.00992,0.58344 -1.48196,0.76943 -0.75911,0.29912 -0.72899,0.30888 0.26003,0.0827 0.61505,-0.1405 1.2881,-0.43195 1.49564,-0.6477 0.56662,-0.58892 0.42994,-0.69103 -0.27372,-0.20449 z m -0.6628,-5.64317 c -0.0559,0.006 -0.32112,0.33858 -0.58919,0.73841 l -0.48739,0.727 0.60062,-0.63664 c 0.56444,-0.5983 0.71205,-0.85532 0.47596,-0.82877 z M 95.793546,116.85 c -0.30892,0.27744 2.60457,0.42475 3.22553,0.16312 0.59938,-0.25253 0.36491,-0.30792 -1.19209,-0.2815 -1.06601,0.0181 -1.98106,0.0714 -2.03344,0.11842 z m 3.77045,16.72517 c -0.22424,0.23306 -0.34012,0.47767 -0.25752,0.54359 0.2276,0.18161 0.740604,-0.29701 0.700504,-0.65358 -0.022,-0.19562 -0.188754,-0.15422 -0.442964,0.11003 z m -5.101535,-16.21086 c -0.508454,-0.13805 -1.35315,-0.47655 -1.877094,-0.75224 -0.856087,-0.45047 -0.901479,-0.4504 -0.448047,7.3e-4 0.277514,0.27607 1.20316,0.73682 2.057003,1.02386 1.457893,0.4901 1.498753,0.52975 0.670683,0.65089 l -0.881752,0.12901 1.015182,0.17263 c 0.71025,0.12084 1.32778,0.0256 2.0558,-0.31551 l 1.04062,-0.4882 -1.35396,-0.0851 c -0.74468,-0.0468 -1.76996,-0.19808 -2.278437,-0.33603 z m 3.139815,7.08367 c -0.0584,0.20882 -0.0185,0.60766 0.0886,0.8863 0.10711,0.27863 0.15483,0.10775 0.10608,-0.37969 -0.0488,-0.48747 -0.13632,-0.71545 -0.19471,-0.5066 z m -0.56654,1.1897 c -0.17355,-0.082 -0.3006,-0.0167 -0.28236,0.14587 0.0182,0.16227 0.17518,0.36214 0.3487,0.44419 0.17354,0.082 0.30058,0.0167 0.28235,-0.14587 -0.0182,-0.16227 -0.17519,-0.36214 -0.34869,-0.44419 z m -6.253983,-5.98513 -1.198446,-0.51224 0.911569,0.65226 c 0.984368,0.70436 0.941004,0.84293 -0.136607,0.43645 -0.64313,-0.24259 -0.650379,-0.23103 -0.128927,0.20559 0.635897,0.53245 3.137445,0.58198 4.347711,0.0861 0.706923,-0.28988 0.601733,-0.32981 -0.897991,-0.34202 -0.934382,-0.008 -2.238154,-0.24444 -2.897309,-0.5261 z m 4.036993,11.61229 c -0.822041,0.40124 -0.938959,0.53064 -0.437354,0.48384 0.682664,-0.0637 1.915074,-0.74775 1.682084,-0.93363 -0.0675,-0.0539 -0.62762,0.14856 -1.24475,0.44975 z m -0.305165,-2.07131 -0.707947,0.93016 0.900882,-0.77622 c 0.49549,-0.42693 0.81408,-0.84551 0.70794,-0.93016 -0.10614,-0.0847 -0.51149,0.26464 -0.900875,0.77622 z m -0.368193,1.52691 c -0.608727,0.30401 -0.879652,0.53665 -0.602046,0.517 0.537898,-0.0379 2.009164,-0.83009 1.820934,-0.98025 -0.0617,-0.0493 -0.61015,0.15925 -1.218888,0.46325 z m 0.596618,-3.18175 c -0.0638,0.008 -0.171856,0.22796 -0.240179,0.49065 -0.07121,0.27387 -0.0084,0.38674 0.147189,0.26458 0.26087,-0.20477 0.33196,-0.7821 0.093,-0.75524 z m -3.080423,-5.80803 c -0.735042,0.0827 -0.897179,0.17595 -0.555543,0.31968 0.394415,0.16594 1.629353,-0.11768 1.601251,-0.36774 -0.0042,-0.0377 -0.474841,-0.0156 -1.045708,0.048 z m -3.049685,-4.98584 c -0.179055,0.19417 0.369541,0.68574 1.04843,0.93955 0.625293,0.23372 0.613604,0.19986 -0.13546,-0.39241 -0.450877,-0.35654 -0.86172,-0.60273 -0.913,-0.54713 z"
       id="path19620" />
  </g>
  <g
     id="layer1"
     style="display:inline"
     transform="translate(-31.731665,-71.370205)">
    <path
       style="fill:#0000ff;stroke:#000000;stroke-width:0.222;stroke-miterlimit:4;stroke-dasharray:none;stroke-opacity:1"
       d="m 45.299436,163.31396 c -6.389559,-3.64432 -8.015917,-5.29186 -10.965179,-11.10785 -3.034325,-5.98377 -3.475202,-15.23108 -1.007092,-21.12319 2.163343,-5.16454 8.415596,-11.80678 12.505742,-13.2858 1.998622,-0.7227 3.646641,-2.1299 3.960909,-3.38205 0.864109,-3.44286 7.625699,-10.65791 12.216764,-13.03609 2.774193,-1.437052 6.507405,-2.283513 10.836946,-2.457193 6.518912,-0.261405 6.620539,-0.310443 7.814709,-3.759583 8.340918,-24.092194 38.854175,-31.702874 57.583715,-14.362616 3.30751,3.062165 6.97458,7.552645 8.14909,9.978823 1.99859,4.128565 2.45625,4.44928 7.14034,5.004065 10.39336,1.230927 19.48919,8.345784 22.55831,17.645294 0.6478,1.96284 1.8419,3.49501 2.7238,3.49501 3.54885,0 11.67956,5.59095 14.64793,10.07235 7.41446,11.1938 6.18302,23.47548 -3.26152,32.52863 -6.9435,6.65577 -4.38136,6.43818 -75.65672,6.42463 l -64.650462,-0.0117 z m 137.543614,-3.54855 c 8.40988,-4.07119 13.11337,-14.93568 10.50271,-24.26005 -1.65149,-5.89855 -8.38377,-12.95503 -13.30911,-13.94996 -6.23654,-1.25977 -7.03442,-1.68176 -7.03442,-3.72051 0,-3.33697 -3.79578,-9.7183 -7.69004,-12.92824 -4.22394,-3.4818 -9.67108,-5.351422 -15.59114,-5.351422 -3.83353,0 -4.23297,-0.26913 -5.32902,-3.59027 -2.16714,-6.566442 -8.50939,-13.314324 -15.9627,-16.983556 -8.78044,-4.322631 -18.23336,-4.652497 -26.70579,-0.932028 -9.239934,4.057519 -18.624085,16.584766 -18.624085,24.862016 0,1.47484 -0.449719,1.78618 -1.787835,1.23757 -10.125358,-4.151192 -22.820183,1.25606 -27.418663,11.6787 -1.13899,2.5816 -2.741757,4.23498 -4.888612,5.04306 -6.212599,2.33845 -11.195272,8.38413 -12.801359,15.53234 -2.045188,9.10232 2.583911,18.97184 10.978307,23.40656 3.575286,1.88881 6.497983,1.97623 67.521337,2.01943 62.40475,0.0441 63.8784,-4.7e-4 68.14042,-2.06364 z"
       id="path28902" />
    <g
       id="g30422" />
  </g>
  <g
     id="layer5"
     style="display:inline"
     transform="translate(-31.731665,-71.370205)">
    <text
       xml:space="preserve"
       transform="matrix(0.28676026,0,0,0.28200451,38.458579,33.76077)"
       id="text7578"
       style="font-style:normal;font-variant:normal;font-weight:normal;font-stretch:normal;font-size:42.6667px;line-height:1.25;font-family:'Arial Black';-inkscape-font-specification:'Arial Black, Normal';font-variant-ligatures:normal;font-variant-caps:normal;font-variant-numeric:normal;font-variant-east-asian:normal;white-space:pre;shape-inside:url(#rect7580);fill:#00ffff;fill-opacity:1;stroke:none"><tspan
         x="10.927734"
         y="434.80484"
         id="tspan36356">Cleaning-Marketplace</tspan></text>
  </g>
  <g
     id="layer8"
     transform="translate(-31.731665,-71.370205)">
    <text
       xml:space="preserve"
       transform="matrix(0.28676026,0,0,0.28200451,37.697624,33.000979)"
       id="text7578-8"
       style="font-style:normal;font-variant:normal;font-weight:normal;font-stretch:normal;font-size:42.6667px;line-height:1.25;font-family:'Arial Black';-inkscape-font-specification:'Arial Black, Normal';font-variant-ligatures:normal;font-variant-caps:normal;font-variant-numeric:normal;font-variant-east-asian:normal;white-space:pre;shape-inside:url(#rect7580-3);display:inline;fill:#0000ff;fill-opacity:1;stroke:none"><tspan
         x="10.927734"
         y="434.80484"
         id="tspan36358">Cleaning-Marketplace</tspan></text>
  </g>
  <g
     id="layer6"
     style="display:inline"
     transform="translate(-31.731665,-71.370205)">
    <text
       xml:space="preserve"
       transform="matrix(0.28676026,0,0,0.28200451,38.057178,33.404536)"
       id="text7578-7"
       style="font-style:normal;font-variant:normal;font-weight:normal;font-stretch:normal;font-size:42.6667px;line-height:1.25;font-family:'Arial Black';-inkscape-font-specification:'Arial Black, Normal';font-variant-ligatures:normal;font-variant-caps:normal;font-variant-numeric:normal;font-variant-east-asian:normal;white-space:pre;shape-inside:url(#rect7580-5);display:inline;fill:#ffffff;fill-opacity:1;stroke:#000000;stroke-opacity:1"><tspan
         x="10.927734"
         y="434.80484"
         id="tspan36360">Cleaning-Marketplace</tspan></text>
  </g>
</svg>
